<svg width="22" height="22" viewBox="0 0 22 22" fill="none" xmlns="http://www.w3.org/2000/svg">
<path d="M4.22071 20.8315C3.99261 20.6621 3.8525 20.434 3.80036 20.1473C3.75474 19.867 3.7971 19.5347 3.92744 19.1502L5.94119 13.1773L0.809065 9.49199C0.476698 9.25738 0.245345 9.01299 0.115006 8.75883C-0.0153341 8.49815 -0.034885 8.23095 0.0563528 7.95724C0.147591 7.69004 0.320291 7.49127 0.574453 7.36094C0.828616 7.22408 1.16098 7.15891 1.57155 7.16543L7.85718 7.20453L9.77318 1.20238C9.897 0.811365 10.0599 0.514842 10.262 0.312815C10.4705 0.104272 10.7149 0 10.9951 0C11.2819 0 11.5262 0.104272 11.7283 0.312815C11.9368 0.514842 12.103 0.811365 12.2268 1.20238L14.1428 7.20453L20.4284 7.16543C20.839 7.15891 21.1714 7.22408 21.4255 7.36094C21.6797 7.49127 21.8524 7.69004 21.9436 7.95724C22.0349 8.23095 22.0153 8.49815 21.885 8.75883C21.7547 9.01299 21.5233 9.25738 21.1909 9.49199L16.0588 13.1773L18.0726 19.1502C18.2029 19.5347 18.242 19.867 18.1899 20.1473C18.1442 20.434 18.0074 20.6621 17.7793 20.8315C17.5512 21.014 17.2938 21.0792 17.007 21.0271C16.7203 20.9749 16.414 20.8315 16.0881 20.5969L10.9951 16.8529L5.91186 20.5969C5.58601 20.8315 5.27972 20.9749 4.99297 21.0271C4.70622 21.0792 4.4488 21.014 4.22071 20.8315Z" fill="white"/>
</svg>
